<svg viewBox="0 0 43 15" fill="none" xmlns="http://www.w3.org/2000/svg">
<path d="M42.6404 6.64373C42.64 6.64337 42.6397 6.64294 42.6393 6.64258L36.2335 0.352254C35.7536 -0.118976 34.9774 -0.117222 34.4997 0.356367C34.0221 0.829895 34.0239 1.5958 34.5038 2.06709L38.8047 6.29032H1.22594C0.548855 6.29032 0 6.8319 0 7.5C0 8.16811 0.548855 8.70968 1.22594 8.70968C1.90303 8.70968 38.8046 8.70968 38.8046 8.70968L34.5039 12.9329C34.024 13.4042 34.0221 14.1701 34.4998 14.6436C34.9775 15.1173 35.7537 15.1189 36.2336 14.6477L42.6394 8.35742C42.6397 8.35706 42.64 8.35663 42.6405 8.35627C43.1206 7.88341 43.1191 7.11502 42.6404 6.64373Z" fill="white"/>
</svg>
