<svg xmlns="http://www.w3.org/2000/svg">
<symbol viewBox="0 0 15 26" id="facebook"><path d="M7.12306 5.71553C7.77754 5.71553 8.30814 5.18493 8.30814 4.53046C8.30814 3.33922 9.27737 2.37015 10.4684 2.37015H13.8149C14.4694 2.37015 15 1.83955 15 1.18507C15 0.530597 14.4694 0 13.8149 0H10.4684C7.97031 0 5.93799 2.03232 5.93799 4.53046C5.93799 5.18478 6.46859 5.71553 7.12306 5.71553Z"/><path d="M13.5608 9.42166H1.44118C0.7867 9.42166 0.256104 9.95226 0.256104 10.6067C0.256104 11.2612 0.7867 11.7918 1.44118 11.7918H5.93814V24.0684C5.93814 24.7229 6.46873 25.2535 7.12321 25.2535C7.77769 25.2535 8.30828 24.7229 8.30828 24.0684V11.7918H13.561C14.2155 11.7918 14.7461 11.2612 14.7461 10.6067C14.7461 9.95226 14.2153 9.42166 13.5608 9.42166Z"/></symbol>
<symbol viewBox="0 0 512.2507 511.89868" id="instagram"><path d="m510.949219 150.5c-1.199219-27.199219-5.597657-45.898438-11.898438-62.101562-6.5-17.199219-16.5-32.597657-29.601562-45.398438-12.800781-13-28.300781-23.101562-45.300781-29.5-16.296876-6.300781-34.898438-10.699219-62.097657-11.898438-27.402343-1.300781-36.101562-1.601562-105.601562-1.601562s-78.199219.300781-105.5 1.5c-27.199219 1.199219-45.898438 5.601562-62.097657 11.898438-17.203124 6.5-32.601562 16.5-45.402343 29.601562-13 12.800781-23.097657 28.300781-29.5 45.300781-6.300781 16.300781-10.699219 34.898438-11.898438 62.097657-1.300781 27.402343-1.601562 36.101562-1.601562 105.601562s.300781 78.199219 1.5 105.5c1.199219 27.199219 5.601562 45.898438 11.902343 62.101562 6.5 17.199219 16.597657 32.597657 29.597657 45.398438 12.800781 13 28.300781 23.101562 45.300781 29.5 16.300781 6.300781 34.898438 10.699219 62.101562 11.898438 27.296876 1.203124 36 1.5 105.5 1.5s78.199219-.296876 105.5-1.5c27.199219-1.199219 45.898438-5.597657 62.097657-11.898438 34.402343-13.300781 61.601562-40.5 74.902343-74.898438 6.296876-16.300781 10.699219-34.902343 11.898438-62.101562 1.199219-27.300781 1.5-36 1.5-105.5s-.101562-78.199219-1.300781-105.5zm-46.097657 209c-1.101562 25-5.300781 38.5-8.800781 47.5-8.601562 22.300781-26.300781 40-48.601562 48.601562-9 3.5-22.597657 7.699219-47.5 8.796876-27 1.203124-35.097657 1.5-103.398438 1.5s-76.5-.296876-103.402343-1.5c-25-1.097657-38.5-5.296876-47.5-8.796876-11.097657-4.101562-21.199219-10.601562-29.398438-19.101562-8.5-8.300781-15-18.300781-19.101562-29.398438-3.5-9-7.699219-22.601562-8.796876-47.5-1.203124-27-1.5-35.101562-1.5-103.402343s.296876-76.5 1.5-103.398438c1.097657-25 5.296876-38.5 8.796876-47.5 4.101562-11.101562 10.601562-21.199219 19.203124-29.402343 8.296876-8.5 18.296876-15 29.398438-19.097657 9-3.5 22.601562-7.699219 47.5-8.800781 27-1.199219 35.101562-1.5 103.398438-1.5 68.402343 0 76.5.300781 103.402343 1.5 25 1.101562 38.5 5.300781 47.5 8.800781 11.097657 4.097657 21.199219 10.597657 29.398438 19.097657 8.5 8.300781 15 18.300781 19.101562 29.402343 3.5 9 7.699219 22.597657 8.800781 47.5 1.199219 27 1.5 35.097657 1.5 103.398438s-.300781 76.300781-1.5 103.300781zm0 0"/><path d="m256.449219 124.5c-72.597657 0-131.5 58.898438-131.5 131.5s58.902343 131.5 131.5 131.5c72.601562 0 131.5-58.898438 131.5-131.5s-58.898438-131.5-131.5-131.5zm0 216.800781c-47.097657 0-85.300781-38.199219-85.300781-85.300781s38.203124-85.300781 85.300781-85.300781c47.101562 0 85.300781 38.199219 85.300781 85.300781s-38.199219 85.300781-85.300781 85.300781zm0 0"/><path d="m423.851562 119.300781c0 16.953125-13.746093 30.699219-30.703124 30.699219-16.953126 0-30.699219-13.746094-30.699219-30.699219 0-16.957031 13.746093-30.699219 30.699219-30.699219 16.957031 0 30.703124 13.742188 30.703124 30.699219zm0 0"/></symbol>
<symbol viewBox="0 0 24.001333 18.502668" id="soundcloud"><path d="m20.25 11c-.267 0-.529.029-.782.082-.337-3.409-3.222-6.082-6.718-6.082-.414 0-.75.336-.75.75v12c0 .414.336.75.75.75h7.5c2.069 0 3.75-1.681 3.75-3.75 0-2.067-1.681-3.75-3.75-3.75z"/><path d="m9 7.25v10.5c0 .414.336.75.75.75s.75-.336.75-.75v-10.5c0-.414-.336-.75-.75-.75s-.75.336-.75.75z"/><path d="m6 10.25v7.5c0 .414.336.75.75.75s.75-.336.75-.75v-7.5c0-.414-.336-.75-.75-.75s-.75.336-.75.75z"/><path d="m3 17.75c0 .414.336.75.75.75s.75-.336.75-.75v-7.5c0-.414-.336-.75-.75-.75s-.75.336-.75.75z"/><path d="m.75 18.5c.414 0 .75-.336.75-.75v-4.5c0-.414-.336-.75-.75-.75s-.75.336-.75.75v4.5c0 .414.336.75.75.75z"/></symbol>
<symbol viewBox="0 0 186.844 186.844" id="spotify"><g><path d="M128.875,120.962c-31.094-14.37-74.616-8.014-76.453-7.737c-4.096,0.619-6.915,4.44-6.296,8.536   c0.619,4.096,4.443,6.912,8.536,6.296c0.406-0.062,40.867-5.982,67.92,6.521c1.018,0.471,2.089,0.694,3.142,0.694   c2.834-0.001,5.546-1.614,6.813-4.355C134.274,127.157,132.635,122.7,128.875,120.962z"/><path d="M137.614,93.953c-35.313-16.319-84.833-9.087-86.924-8.772c-4.094,0.619-6.911,4.438-6.294,8.532   c0.616,4.095,4.438,6.916,8.531,6.301c0.468-0.071,47.206-6.857,78.394,7.556c1.02,0.471,2.089,0.694,3.142,0.694   c2.834-0.001,5.546-1.614,6.814-4.356C143.014,100.148,141.374,95.691,137.614,93.953z"/><path d="M143.49,65.736c-39.006-18.027-93.79-10.028-96.103-9.679c-4.094,0.619-6.911,4.438-6.294,8.532s4.44,6.919,8.531,6.3   c0.523-0.079,52.691-7.657,87.573,8.463c1.018,0.471,2.089,0.694,3.142,0.694c2.834,0,5.546-1.614,6.813-4.355   C148.89,71.93,147.25,67.474,143.49,65.736z"/><path d="M93.423,0.001C41.909,0.001,0,41.909,0,93.42c0,51.514,41.909,93.424,93.423,93.424c51.513,0,93.422-41.91,93.422-93.424   C186.845,41.909,144.936,0.001,93.423,0.001z M93.423,171.844C50.18,171.844,15,136.664,15,93.42   c0-43.241,35.18-78.42,78.423-78.42c43.242,0,78.422,35.179,78.422,78.42C171.845,136.664,136.665,171.844,93.423,171.844z"/></g><g/><g/><g/><g/><g/><g/><g/><g/><g/><g/><g/><g/><g/><g/><g/></symbol>
<symbol viewBox="0 0 24.000666 21.246668" id="youtube"><path d="m9.939 7.856c-.497-.297-1.134.062-1.134.644v7c0 .585.638.939 1.134.645l5.869-3.495c.488-.291.487-.997.001-1.289zm.366 6.325v-4.36l3.655 2.183z"/><path d="m19.904 3.271c-4.653-.691-11.153-.691-15.808 0-1.862.276-3.329 1.738-3.649 3.636-.596 3.523-.596 6.664 0 10.186.32 1.899 1.787 3.36 3.649 3.636 2.332.346 5.124.519 7.915.519 2.786 0 5.571-.172 7.894-.518 1.86-.276 3.326-1.737 3.648-3.636.596-3.523.596-6.665 0-10.188-.32-1.897-1.787-3.359-3.649-3.635zm2.17 13.573c-.213 1.256-1.173 2.222-2.39 2.402-4.518.671-10.838.671-15.368-.001-1.218-.181-2.179-1.146-2.391-2.402-.574-3.394-.574-6.291 0-9.687.213-1.256 1.173-2.22 2.392-2.402 2.262-.335 4.973-.503 7.682-.503 2.711 0 5.422.168 7.684.503 1.218.181 2.179 1.146 2.391 2.402.574 3.396.574 6.293 0 9.688z"/></symbol></svg>